<svg xmlns="http://www.w3.org/2000/svg" width="155" height="100" viewBox="0 0 155 100"><defs><style>.a{fill:#95cc81;}.b{fill:#e5646e;}.c{fill:#db4655;}.d{fill:#7dbd80;}.e{fill:#f2f2f6;}.f{fill:#e1e1e6;}.g{fill:#966a5b;}.h{fill:#785353;}</style></defs><g transform="translate(0 -90.839)"><g transform="translate(0 90.839)"><g transform="translate(0 0)"><path class="a" d="M58.977,90.839H12.31l-1.826,5V183.57a5,5,0,0,0,5,5H58.977l5.833-5.232v-85Z" transform="translate(-7.31 -90.839)"/><path class="b" d="M327.9,188.52h46.667l5-2.681v-90a5,5,0,0,0-5-5H327.9l-5.833,7.5v85Z" transform="translate(-224.564 -90.839)"/><path class="c" d="M384.044,404.645H328.489l3.888,5h46.667A5,5,0,0,0,384.044,404.645Z" transform="translate(-229.044 -309.645)"/><path class="d" d="M5,170.839v-80a5,5,0,0,0-5,5v90a5,5,0,0,0,5,5H51.667l3.888-5H20a15,15,0,0,1-15-15Z" transform="translate(0 -90.839)"/><path class="e" d="M175.712,188.57H218.4l3.936-2.731v-95H170.667v95Z" transform="translate(-119 -90.839)"/><path class="f" d="M170.667,404.645h51.667v5H170.667Z" transform="translate(-119 -309.645)"/></g></g><path class="a" d="M215.694,267.742a17.52,17.52,0,0,1-17.5-17.5,2.5,2.5,0,0,1,5,0,12.5,12.5,0,0,0,25,0,2.5,2.5,0,1,1,5,0A17.52,17.52,0,0,1,215.694,267.742Z" transform="translate(-138.194 -109.403)"/><path class="g" d="M237.391,214.71h2.474a7.5,7.5,0,0,1,7.5,7.5v7.5l-3.5,2.5a7.5,7.5,0,0,1-7.425-6.439Z" transform="translate(-164.865 -86.371)"/><path class="h" d="M238.828,229.71h-3.5a5,5,0,0,1-4.95-4.293l-1.529-10.707H226.7a2.5,2.5,0,0,0-2.476,2.848l1.205,8.565a10.05,10.05,0,0,0,9.9,8.586h1a2.5,2.5,0,0,0,2.5-2.5v-2.5Z" transform="translate(-156.328 -86.371)"/></g></svg>