<svg xmlns="http://www.w3.org/2000/svg" width="24" height="24" viewBox="0 0 24 24"><defs><style>.a{fill:#ff3100;}</style></defs><g transform="translate(-8.907 -21.333)"><path class="a" d="M310.155,362.667a2.4,2.4,0,1,0,2.38,2.4A2.38,2.38,0,0,0,310.155,362.667Z" transform="translate(-282.206 -322.134)"/><path class="a" d="M96.822,362.667a2.4,2.4,0,1,0,2.38,2.4A2.38,2.38,0,0,0,96.822,362.667Z" transform="translate(-80.774 -322.134)"/><path class="a" d="M16.256,36.633a.287.287,0,0,1,.036-.144l1.071-1.956H26.23A2.385,2.385,0,0,0,28.313,33.3l4.594-8.412-2.083-1.152h-.006l-1.315,2.4-3.279,6H17.875l-.155-.324-2.672-5.676-1.131-2.4-1.125-2.4H8.907v2.4h2.38l4.285,9.1-1.613,2.94a2.455,2.455,0,0,0-.292,1.158,2.39,2.39,0,0,0,2.38,2.4H30.33v-2.4H16.554A.3.3,0,0,1,16.256,36.633Z"/></g></svg>