<svg xmlns="http://www.w3.org/2000/svg" width="155" height="100" viewBox="0 0 155 100"><defs><style>.a{fill:#e5646e;}.b{fill:#db4655;}.c{fill:#ffe07d;}</style></defs><g transform="translate(0 -90.839)"><path class="a" d="M155.451,90.839h-145L7.817,93.915v89.05a5,5,0,0,0,5,5H157.423l3.027-2.126v-90A5,5,0,0,0,155.451,90.839Z" transform="translate(-5.451)"/><path class="b" d="M5,170.839v-80a5,5,0,0,0-5,5v90a5,5,0,0,0,5,5H150a5,5,0,0,0,5-5H20a15,15,0,0,1-15-15Z"/><g transform="translate(16.224 100.526)"><path class="c" d="M81.145,164.724l-8.049-.071L69.143,156a1.228,1.228,0,0,0-2.331,0l-2.884,8.649-9.117.071a1.229,1.229,0,0,0-.72,2.217l7.334,5.416-2.75,8.693a1.229,1.229,0,0,0,1.886,1.37l7.418-5.3,7.418,5.3a1.229,1.229,0,0,0,1.886-1.37l-2.75-8.693,7.334-5.416A1.229,1.229,0,0,0,81.145,164.724Z" transform="translate(-53.59 -145.378)"/><path class="c" d="M153.137,126.165l-1.644-.015-1.106-2.42a1.526,1.526,0,0,0-2.836.151l-.757,2.269-2.187.017a1.459,1.459,0,0,0-.855,2.632l1.759,1.3-.66,2.085a1.459,1.459,0,0,0,2.239,1.627l1.779-1.271,1.779,1.271a1.459,1.459,0,0,0,2.239-1.627l-.66-2.085,1.763-1.3A1.459,1.459,0,0,0,153.137,126.165Z" transform="translate(-116.042 -122.838)"/><path class="c" d="M153.137,257.262l-1.644-.015-1.106-2.42a1.526,1.526,0,0,0-2.836.151l-.757,2.269-2.187.017a1.459,1.459,0,0,0-.855,2.632l1.759,1.3-.66,2.085a1.459,1.459,0,0,0,2.239,1.627l1.779-1.271,1.779,1.271a1.459,1.459,0,0,0,2.239-1.627l-.66-2.085,1.763-1.3A1.459,1.459,0,0,0,153.137,257.262Z" transform="translate(-116.042 -214.247)"/><path class="c" d="M191.674,216.659l-1.644-.015-1.106-2.42a1.526,1.526,0,0,0-2.836.151l-.757,2.269-2.187.017a1.459,1.459,0,0,0-.855,2.632l1.759,1.3-.66,2.085a1.459,1.459,0,0,0,2.239,1.627l1.779-1.271,1.779,1.271a1.459,1.459,0,0,0,2.239-1.627l-.66-2.085,1.763-1.3a1.459,1.459,0,0,0-.854-2.632Z" transform="translate(-142.913 -185.936)"/><path class="c" d="M191.674,162.982l-1.644-.015-1.106-2.42a1.526,1.526,0,0,0-2.836.151l-.757,2.269-2.187.017a1.459,1.459,0,0,0-.855,2.632l1.759,1.3-.66,2.085a1.459,1.459,0,0,0,2.239,1.627l1.779-1.271,1.779,1.271A1.459,1.459,0,0,0,191.425,169l-.66-2.085,1.763-1.3A1.459,1.459,0,0,0,191.674,162.982Z" transform="translate(-142.913 -148.509)"/></g></g></svg>