<svg xmlns="http://www.w3.org/2000/svg" width="155" height="100" viewBox="0 0 155 100"><defs><style>.a{fill:#ffc269;}.b{fill:#ffa95f;}.c{fill:#95cc81;}.d{fill:#7dbd80;}.e{fill:#f2f2f6;}.f{fill:#e1e1e6;}.g{fill:#5055a0;}.h{fill:#3f3f8f;}</style></defs><g transform="translate(0 -90.839)"><g transform="translate(0 90.839)"><g transform="translate(0 0)"><path class="a" d="M160.346,124.172V95.839a5,5,0,0,0-5-5h-145l-2.679,5v28.333l5.178,6.667h140Z" transform="translate(-5.346 -90.839)"/><path class="b" d="M0,95.839v28.333l5,4.445V90.839a5,5,0,0,0-5,5Z" transform="translate(0 -90.839)"/><path class="c" d="M7.817,295.7v26.165a5,5,0,0,0,5,5H155.451l5-2.832V295.7l-7.5-6.667h-140Z" transform="translate(-5.451 -229.032)"/><path class="d" d="M5,314.151V296.373l-5,4.444v28.333a5,5,0,0,0,5,5H150a5,5,0,0,0,5-5H20a15,15,0,0,1-15-15Z" transform="translate(0 -234.151)"/><path class="e" d="M8.667,230.025l2.376,4.254h150V200.946h-150L8.667,206.21Z" transform="translate(-6.043 -167.613)"/><path class="f" d="M0,200.946H5v33.333H0Z" transform="translate(0 -167.613)"/></g></g><path class="g" d="M240.163,225.168a10.983,10.983,0,0,0-3.535-3.535l-3.23,3.23v-4.57a10.827,10.827,0,0,0-5,0v4.57l-3.23-3.23a10.98,10.98,0,0,0-3.535,3.535l3.23,3.231h-4.571a10.825,10.825,0,0,0,0,5h4.571l-3.23,3.231a10.983,10.983,0,0,0,3.535,3.535l3.23-3.23v4.57a10.821,10.821,0,0,0,5,0v-4.57l3.23,3.23a10.977,10.977,0,0,0,3.535-3.535l-3.23-3.231H241.5a10.821,10.821,0,0,0,0-5h-4.571Z" transform="translate(-153.398 -90.059)"/><g transform="translate(62.5 125.839)"><path class="h" d="M221.452,236.452a15,15,0,1,1,15-15A15.016,15.016,0,0,1,221.452,236.452Zm0-25a10,10,0,1,0,10,10A10.011,10.011,0,0,0,221.452,211.452Z" transform="translate(-206.452 -206.452)"/></g></g></svg>